<?xml version="1.0" encoding="UTF-8"?>
<svg version="1.1" xmlns="http://www.w3.org/2000/svg" width="128" height="128">
<path d="M0 0 C42.24 0 84.48 0 128 0 C128 42.24 128 84.48 128 128 C85.76 128 43.52 128 0 128 C0 85.76 0 43.52 0 0 Z " fill="#013365" transform="translate(0,0)"/>
<path d="M0 0 C1.875 1.0625 1.875 1.0625 3 3 C3 9.91701991 0.31110086 15.03757484 -3 21 C-0.03 21.33 2.94 21.66 6 22 C7.125 26.75 7.125 26.75 6 29 C4.10666314 29.22140198 2.21184187 29.43016228 0.31640625 29.6328125 C-4.0622283 30.66666578 -5.55655799 31.28860158 -7.96923828 35.15917969 C-9.68008225 39.29005995 -10.87294024 43.57130438 -12.0625 47.875 C-12.72523358 50.08925875 -13.40189021 52.29883403 -14.08189392 54.50784302 C-14.49823913 55.87842214 -14.90195807 57.25292328 -15.29078674 58.63156128 C-16.39277247 62.46517 -17.59893331 65.78972566 -20 69 C-24.08600528 69.59587577 -25.52648925 69.31567384 -29 67 C-30.38104568 59.84157987 -28.21015131 52.29880181 -26.5 45.375 C-26.26152344 44.37082031 -26.02304687 43.36664063 -25.77734375 42.33203125 C-25.19482335 39.88544557 -24.60227653 37.44178283 -24 35 C-25.3921875 35.3403125 -25.3921875 35.3403125 -26.8125 35.6875 C-27.864375 35.790625 -28.91625 35.89375 -30 36 C-31.69921875 34.51953125 -31.69921875 34.51953125 -33 33 C-33.3623877 33.68513672 -33.72477539 34.37027344 -34.09814453 35.07617188 C-35.7667613 38.22121983 -37.44578531 41.36059863 -39.125 44.5 C-39.97964844 46.11648437 -39.97964844 46.11648437 -40.8515625 47.765625 C-49.40234375 63.70117188 -49.40234375 63.70117188 -54 66 C-56.05859375 66.203125 -56.05859375 66.203125 -58.4375 66.25 C-59.61119141 66.28867188 -59.61119141 66.28867188 -60.80859375 66.328125 C-63.53677498 65.91962728 -64.3441611 65.16727539 -66 63 C-66.97890317 60.0632905 -67.14301809 58.1043095 -67.17700195 55.04125977 C-67.18983719 54.03333878 -67.20267242 53.02541779 -67.21589661 51.98695374 C-67.22328354 50.89942307 -67.23067047 49.8118924 -67.23828125 48.69140625 C-67.246353 47.5731395 -67.25442474 46.45487274 -67.26274109 45.30271912 C-67.27657507 42.93644764 -67.28730029 40.57015626 -67.29516602 38.20385742 C-67.31241581 34.58018494 -67.35631354 30.95741606 -67.40039062 27.33398438 C-67.41051433 25.03646505 -67.41903143 22.73893797 -67.42578125 20.44140625 C-67.44328934 19.35589981 -67.46079742 18.27039337 -67.47883606 17.1519928 C-67.47591049 16.14091965 -67.47298492 15.1298465 -67.4699707 14.08813477 C-67.47583694 13.2000563 -67.48170319 12.31197784 -67.48774719 11.39698792 C-66.83550727 8.19161587 -65.54734343 6.98937724 -63 5 C-59.75 4.75 -59.75 4.75 -57 5 C-54.44296616 11.05281435 -53.35893032 16.47291488 -52.8125 23 C-52.6897168 24.30517578 -52.6897168 24.30517578 -52.56445312 25.63671875 C-52.36641309 27.75691206 -52.18179444 29.87835199 -52 32 C-51.72325439 31.46632812 -51.44650879 30.93265625 -51.16137695 30.3828125 C-49.88181692 27.92009216 -48.59719132 25.46004721 -47.3125 23 C-46.87744141 22.16082031 -46.44238281 21.32164063 -45.99414062 20.45703125 C-38.90072409 6.90072409 -38.90072409 6.90072409 -36 4 C-30.86083237 3.3338116 -27.15841184 3.20501148 -22.8125 6.1875 C-21 9 -21 9 -21.1640625 11.28125 C-22.19374885 14.63013645 -23.75142842 17.31599974 -25.5625 20.3125 C-26.20316406 21.38113281 -26.84382813 22.44976562 -27.50390625 23.55078125 C-27.99761719 24.35902344 -28.49132813 25.16726562 -29 26 C-23.555 25.01 -23.555 25.01 -18 24 C-17.9175 22.88625 -17.835 21.7725 -17.75 20.625 C-16.84499902 13.44872459 -14.17260717 6.17260717 -9 1 C-5.78161543 -1.28401486 -3.71613691 -1.2387123 0 0 Z " fill="#F6FBFB" transform="translate(80,30)"/>
<path d="M0 0 C1.48400777 2.35695352 2.01570001 3.68599981 1.875 6.5 C0.78245829 9.62154775 -0.43387995 10.91936212 -3 13 C-3.969375 13.37125 -4.93875 13.7425 -5.9375 14.125 C-10.61431581 16.98835662 -12.15979726 20.93944246 -14 26 C-14.51400642 28.26320174 -14.99279267 30.53466767 -15.4375 32.8125 C-16.89265994 39.66792016 -16.89265994 39.66792016 -19.6875 42.3125 C-23.9669657 44.49260517 -26.25204597 44.55392797 -31 44 C-33 42 -33 42 -33.3359375 38.53515625 C-33.19802898 33.17486982 -31.42441364 28.43944148 -29.625 23.4375 C-28.99090591 21.62414556 -28.35806641 19.81035185 -27.7265625 17.99609375 C-27.42556641 17.14200928 -27.12457031 16.2879248 -26.81445312 15.40795898 C-26.09601932 13.28388446 -25.46658177 11.16405973 -24.8828125 9 C-23.86230149 5.53206878 -22.96761646 4.06084476 -20 2 C-16.9375 1.75 -16.9375 1.75 -14 2 C-11.03901926 2.19845558 -11.03901926 2.19845558 -8.6875 1 C-5.63460105 -0.1359624 -3.23130355 -0.15029319 0 0 Z " fill="#F4FAFB" transform="translate(113,53)"/>
<path d="M0 0 C0.66 0.33 1.32 0.66 2 1 C1.01 4.96 0.02 8.92 -1 13 C-4.96 13.99 -8.92 14.98 -13 16 C-8.04464286 5.82142857 -8.04464286 5.82142857 -5 2 C-3.35 2.33 -1.7 2.66 0 3 C0 2.01 0 1.02 0 0 Z " fill="#053557" transform="translate(63,41)"/>
<path d="M0 0 C0.33 0.66 0.66 1.32 1 2 C-1.31 2.33 -3.62 2.66 -6 3 C-7.65033544 9.53474929 -8.32716625 15.55895439 -8.4140625 22.28515625 C-8.43342865 23.22685165 -8.4527948 24.16854706 -8.4727478 25.13877869 C-8.53198873 28.11326358 -8.57870474 31.08778836 -8.625 34.0625 C-8.66323096 36.09311478 -8.70228558 38.12371424 -8.7421875 40.15429688 C-8.83764389 45.10273841 -8.92187698 50.0512557 -9 55 C-9.33 55 -9.66 55 -10 55 C-10.10136217 47.81018098 -10.1714496 40.62054598 -10.21972656 33.43017578 C-10.23985052 30.98381667 -10.2671526 28.53750571 -10.30175781 26.09130859 C-10.35023963 22.57637659 -10.37296128 19.06208016 -10.390625 15.546875 C-10.41127014 14.4519574 -10.43191528 13.35703979 -10.45318604 12.22894287 C-10.45348816 11.20818665 -10.45379028 10.18743042 -10.45410156 9.13574219 C-10.46298401 8.23861511 -10.47186646 7.34148804 -10.48101807 6.41717529 C-9.3074108 0.51965357 -5.43628927 -0.49420812 0 0 Z " fill="#A8C8DA" transform="translate(23,35)"/>
<path d="M0 0 C0.37125 0.66 0.7425 1.32 1.125 2 C2.90894778 4.35303045 2.90894778 4.35303045 6.1875 4.25 C7.115625 4.1675 8.04375 4.085 9 4 C8.5547115 9.27315333 7.91626837 14.01770224 6 19 C5.67 19 5.34 19 5 19 C5 15.37 5 11.74 5 8 C2.36 8 -0.28 8 -3 8 C-2.37240135 5.07120629 -1.41377341 2.63904371 0 0 Z " fill="#183B5C" transform="translate(47,61)"/>
<path d="M0 0 C0.99 0 1.98 0 3 0 C2.71517632 1.41805831 2.42181856 2.83440379 2.125 4.25 C1.96257812 5.03890625 1.80015625 5.8278125 1.6328125 6.640625 C1.00514847 8.98080446 0.15186467 10.87624952 -1 13 C-1.37125 13.7425 -1.7425 14.485 -2.125 15.25 C-2.41375 15.8275 -2.7025 16.405 -3 17 C-3.99 17 -4.98 17 -6 17 C-4.14506608 11.28062041 -2.06896109 5.64444725 0 0 Z " fill="#183C61" transform="translate(66,83)"/>
<path d="M0 0 C0.99 0.66 1.98 1.32 3 2 C1.02 5.96 -0.96 9.92 -3 14 C-3.66 13.67 -4.32 13.34 -5 13 C-5 9.7 -5 6.4 -5 3 C-4.67 4.32 -4.34 5.64 -4 7 C-3.01 7 -2.02 7 -1 7 C-1.020625 6.030625 -1.04125 5.06125 -1.0625 4.0625 C-1 1 -1 1 0 0 Z " fill="#163B5B" transform="translate(32,49)"/>
<path d="M0 0 C0.66 1.32 1.32 2.64 2 4 C3.65 4 5.3 4 7 4 C7 4.66 7 5.32 7 6 C3.04 6.99 -0.92 7.98 -5 9 C-1.125 1.125 -1.125 1.125 0 0 Z " fill="#163A53" transform="translate(55,48)"/>
<path d="M0 0 C0.66 0.33 1.32 0.66 2 1 C2.34615998 6.65394631 1.43425238 10.03006806 -1 15 C-1.66 15 -2.32 15 -3 15 C-2.68917128 13.24970238 -2.37626821 11.49977306 -2.0625 9.75 C-1.88847656 8.77546875 -1.71445313 7.8009375 -1.53515625 6.796875 C-1.09620271 4.50278205 -0.59651408 2.25708029 0 0 Z " fill="#0C3559" transform="translate(84,64)"/>
<path d="M0 0 C0.33 0 0.66 0 1 0 C1.25 5.625 1.25 5.625 -1 9 C-1.70164642 10.98799818 -2.37372872 12.98698517 -3 15 C-4.32 14.34 -5.64 13.68 -7 13 C-3.535 6.565 -3.535 6.565 0 0 Z " fill="#1A3B69" transform="translate(42,70)"/>
<path d="M0 0 C0.99 0 1.98 0 3 0 C2.1342843 2.66929007 1.27808762 4.67741836 -0.5625 6.8125 C-4.28478371 8.62592027 -7.93143633 8.23472483 -12 8 C-12 7.67 -12 7.34 -12 7 C-10.948125 6.95875 -9.89625 6.9175 -8.8125 6.875 C-3.79073732 5.7224643 -3.05450419 3.98782491 0 0 Z " fill="#D9EDF2" transform="translate(29,88)"/>
<path d="M0 0 C2.5723216 0.34761103 4.60671393 0.7771379 6.875 2.0625 C8.49660067 4.85525671 7.95573796 7.03691624 7.51953125 10.16015625 C7 12 7 12 5 14 C4.875 6.375 4.875 6.375 6 3 C3.69 3 1.38 3 -1 3 C-0.67 2.01 -0.34 1.02 0 0 Z " fill="#D5EFF9" transform="translate(75,29)"/>
<path d="M0 0 C0 0.99 0 1.98 0 3 C-5.94 3.495 -5.94 3.495 -12 4 C-11 2 -11 2 -8.8125 0.875 C-5.73230669 -0.08328236 -3.20690052 -0.14915816 0 0 Z " fill="#D4EDF3" transform="translate(113,53)"/>
<path d="M0 0 C1.32 0.33 2.64 0.66 4 1 C3.67 2.98 3.34 4.96 3 7 C2.01 7 1.02 7 0 7 C0 4.69 0 2.38 0 0 Z " fill="#DAF7FC" transform="translate(83,52)"/>
<path d="M0 0 C0 0.66 0 1.32 0 2 C0.66 2 1.32 2 2 2 C2.33 3.32 2.66 4.64 3 6 C2.01 6.495 2.01 6.495 1 7 C1 5.68 1 4.36 1 3 C-0.98 3.33 -2.96 3.66 -5 4 C-5.33 3.34 -5.66 2.68 -6 2 C-3 0 -3 0 0 0 Z " fill="#D4E8F1" transform="translate(55,62)"/>
<path d="M0 0 C1.32 0.33 2.64 0.66 4 1 C5.03039555 5.53374042 5.17766075 6.64467851 3 11 C2.01 7.37 1.02 3.74 0 0 Z " fill="#1C476B" transform="translate(83,59)"/>
<path d="M0 0 C1.43739513 -0.02712066 2.87493863 -0.04645067 4.3125 -0.0625 C5.51326172 -0.07990234 5.51326172 -0.07990234 6.73828125 -0.09765625 C9 0 9 0 12 1 C12.33 3.31 12.66 5.62 13 8 C12.2884375 6.824375 12.2884375 6.824375 11.5625 5.625 C8.09107207 2.0689031 4.7954249 1.68652451 0 1 C0 0.67 0 0.34 0 0 Z " fill="#234368" transform="translate(47,33)"/>
<path d="M0 0 C0.66 0.33 1.32 0.66 2 1 C1.34 3.64 0.68 6.28 0 9 C-0.433125 8.360625 -0.86625 7.72125 -1.3125 7.0625 C-2.91239177 4.73253997 -2.91239177 4.73253997 -6 4 C-5.67 3.34 -5.34 2.68 -5 2 C-3.35 2.33 -1.7 2.66 0 3 C0 2.01 0 1.02 0 0 Z " fill="#153D5F" transform="translate(63,41)"/>
<path d="M0 0 C1.60031344 3.20062687 0.03173691 5.72271806 -1 9 C-1.66 9 -2.32 9 -3 9 C-3 9.66 -3 10.32 -3 11 C-3.66 11 -4.32 11 -5 11 C-3.77472971 6.94718288 -2.30119506 3.55639236 0 0 Z " fill="#DBEBF3" transform="translate(69,33)"/>
<path d="M0 0 C0.66 0.33 1.32 0.66 2 1 C1.01 2.98 0.02 4.96 -1 7 C-1.99 7 -2.98 7 -4 7 C-4.33 7.99 -4.66 8.98 -5 10 C-4.56802365 5.2482602 -3.67230705 3.07999946 0 0 Z " fill="#D0E1ED" transform="translate(93,55)"/>
<path d="M0 0 C0 0.66 0 1.32 0 2 C-3.21451269 3.60725635 -6.43612536 3.05748185 -10 3 C-6.68152292 -0.06320961 -4.44849969 -0.3033068 0 0 Z " fill="#062B60" transform="translate(88,48)"/>
<path d="M0 0 C1.485 0.99 1.485 0.99 3 2 C2.01 5.3 1.02 8.6 0 12 C-1.03054547 7.87781812 -1.96614019 3.93228039 0 0 Z " fill="#DCECF5" transform="translate(69,65)"/>
<path d="M0 0 C0.66 0 1.32 0 2 0 C3.125 7.75 3.125 7.75 2 10 C1.01 9.67 0.02 9.34 -1 9 C-0.67 6.03 -0.34 3.06 0 0 Z " fill="#274971" transform="translate(82,32)"/>
<path d="M0 0 C0 0.99 0 1.98 0 3 C-0.66 3 -1.32 3 -2 3 C-2 3.66 -2 4.32 -2 5 C-3.65 5 -5.3 5 -7 5 C-4.63707344 2.47411298 -3.33537489 1.11179163 0 0 Z " fill="#1F3B66" transform="translate(110,65)"/>
<path d="M0 0 C0.66 0.33 1.32 0.66 2 1 C1.67 2.98 1.34 4.96 1 7 C0.01 7.33 -0.98 7.66 -2 8 C-2 4.23312136 -1.76462683 3.08809695 0 0 Z " fill="#DBEEF7" transform="translate(39,41)"/>
<path d="M0 0 C1.32 0.66 2.64 1.32 4 2 C3.01 3.32 2.02 4.64 1 6 C0.67 5.34 0.34 4.68 0 4 C-0.99 4.495 -0.99 4.495 -2 5 C-1.125 1.125 -1.125 1.125 0 0 Z " fill="#123C6E" transform="translate(36,39)"/>
</svg>
